<?xml version="1.0" encoding="UTF-8"?>
<svg width="200px" height="200px" viewBox="0 0 200 200" version="1.1" xmlns="http://www.w3.org/2000/svg" xmlns:xlink="http://www.w3.org/1999/xlink">
    <!-- Generator: Sketch 52.5 (67469) - http://www.bohemiancoding.com/sketch -->
    <title>cancel button</title>
    <desc>Created with Sketch.</desc>
    <g id="Page-1" stroke="none" stroke-width="1" fill="none" fill-rule="evenodd">
        <g id="Artboard" fill="#D40000" fill-rule="nonzero">
            <path d="M100,200 C44.771525,200 0,155.228475 0,100 C0,44.771525 44.771525,0 100,0 C155.228475,0 200,44.771525 200,100 C200,155.228475 155.228475,200 100,200 Z M100,78.7867966 L64.6446609,43.4314575 C58.7867966,37.5735931 49.2893219,37.5735931 43.4314575,43.4314575 C37.5735931,49.2893219 37.5735931,58.7867966 43.4314575,64.6446609 L78.7867966,100 L43.4314575,135.355339 C37.5735931,141.213203 37.5735931,150.710678 43.4314575,156.568542 C49.2893219,162.426407 58.7867966,162.426407 64.6446609,156.568542 L100,121.213203 L135.355339,156.568542 C141.213203,162.426407 150.710678,162.426407 156.568542,156.568542 C162.426407,150.710678 162.426407,141.213203 156.568542,135.355339 L121.213203,100 L156.568542,64.6446609 C162.426407,58.7867966 162.426407,49.2893219 156.568542,43.4314575 C150.710678,37.5735931 141.213203,37.5735931 135.355339,43.4314575 L100,78.7867966 Z" id="cancel-button"></path>
        </g>
    </g>
</svg>