<?xml version="1.0" encoding="UTF-8"?>
<svg width="200px" height="200px" viewBox="0 0 200 200" version="1.1" xmlns="http://www.w3.org/2000/svg" xmlns:xlink="http://www.w3.org/1999/xlink">
    <!-- Generator: Sketch 52.5 (67469) - http://www.bohemiancoding.com/sketch -->
    <title>Save</title>
    <desc>Created with Sketch.</desc>
    <g id="Save" stroke="none" stroke-width="1" fill="none" fill-rule="evenodd">
        <path d="M100,200 C44.771525,200 0,155.228475 0,100 C0,44.771525 44.771525,0 100,0 C155.228475,0 200,44.771525 200,100 C200,155.228475 155.228475,200 100,200 Z M59.4671316,166.312116 C65.8132515,171.637143 75.2745855,170.809383 80.5996124,164.463263 L164.162002,64.8774857 C169.487029,58.5313658 168.659269,49.0700318 162.313149,43.7450049 C155.967029,38.419978 146.505695,39.2477375 141.180668,45.5938574 L67.2600932,133.688968 L48.1089821,117.619278 C41.7628622,112.294251 32.3015283,113.122011 26.9765013,119.468131 C21.6514744,125.814251 22.4792339,135.275585 28.8253538,140.600611 L59.4671316,166.312116 Z" id="Combined-Shape" fill="#6FB825" fill-rule="nonzero"></path>
    </g>
</svg>